<mxfile host="Electron" modified="2023-10-22T15:12:49.030Z" agent="Mozilla/5.0 (X11; Linux x86_64) AppleWebKit/537.36 (KHTML, like Gecko) draw.io/21.6.5 Chrome/114.0.5735.243 Electron/25.3.1 Safari/537.36" etag="Ia1n3iMfxOFNSwv7PBIA" version="21.6.5" type="device">
  <diagram name="第 1 页" id="Bj8tEn7FN9Y7yIVg3IFs">
    <mxGraphModel dx="2261" dy="879" grid="1" gridSize="10" guides="1" tooltips="1" connect="1" arrows="1" fold="1" page="1" pageScale="1" pageWidth="827" pageHeight="1169" math="0" shadow="0">
      <root>
        <mxCell id="0" />
        <mxCell id="1" parent="0" />
        <mxCell id="RcNMq9Ko6mRkyaurOMC_-1" value="&lt;h1&gt;&lt;font style=&quot;font-size: 16px;&quot;&gt;SpringCloudCommons NamedContextFactory 原理&lt;/font&gt;&lt;/h1&gt;&lt;p&gt;从官方的单元测试可以看到，NamedContextFactory 会为每个 Specification 都创建一个单独的子应用上下文并解析配置类组中所有配置类，创建并初始化内部的Bean,&amp;nbsp; 另外还会添加 MapPropertySources。&lt;/p&gt;&lt;p&gt;即主要为每个Specification创建了隔离的应用上下文。&lt;/p&gt;" style="text;html=1;strokeColor=none;fillColor=none;spacing=5;spacingTop=-20;whiteSpace=wrap;overflow=hidden;rounded=0;verticalAlign=top;" parent="1" vertex="1">
          <mxGeometry x="40" y="20" width="520" height="120" as="geometry" />
        </mxCell>
        <mxCell id="RcNMq9Ko6mRkyaurOMC_-4" value="" style="edgeStyle=orthogonalEdgeStyle;rounded=0;orthogonalLoop=1;jettySize=auto;html=1;fontSize=10;" parent="1" source="RcNMq9Ko6mRkyaurOMC_-2" target="RcNMq9Ko6mRkyaurOMC_-3" edge="1">
          <mxGeometry relative="1" as="geometry" />
        </mxCell>
        <mxCell id="RcNMq9Ko6mRkyaurOMC_-2" value="NamedContextFactoryTests#&lt;br style=&quot;font-size: 10px;&quot;&gt;testChildContexts()" style="rounded=1;whiteSpace=wrap;html=1;fontSize=10;" parent="1" vertex="1">
          <mxGeometry x="40" y="160" width="200" height="60" as="geometry" />
        </mxCell>
        <mxCell id="RcNMq9Ko6mRkyaurOMC_-6" value="" style="edgeStyle=orthogonalEdgeStyle;rounded=0;orthogonalLoop=1;jettySize=auto;html=1;fontSize=10;" parent="1" source="RcNMq9Ko6mRkyaurOMC_-3" target="RcNMq9Ko6mRkyaurOMC_-5" edge="1">
          <mxGeometry relative="1" as="geometry" />
        </mxCell>
        <mxCell id="RcNMq9Ko6mRkyaurOMC_-3" value="&lt;font style=&quot;font-size: 10px;&quot;&gt;AnnotationConfigApplicationContext parent = new AnnotationConfigApplicationContext();&lt;/font&gt;" style="rounded=1;whiteSpace=wrap;html=1;fontSize=10;" parent="1" vertex="1">
          <mxGeometry x="280" y="160" width="200" height="60" as="geometry" />
        </mxCell>
        <mxCell id="RcNMq9Ko6mRkyaurOMC_-8" value="" style="edgeStyle=orthogonalEdgeStyle;rounded=0;orthogonalLoop=1;jettySize=auto;html=1;fontSize=10;" parent="1" source="RcNMq9Ko6mRkyaurOMC_-5" target="RcNMq9Ko6mRkyaurOMC_-7" edge="1">
          <mxGeometry relative="1" as="geometry" />
        </mxCell>
        <mxCell id="RcNMq9Ko6mRkyaurOMC_-5" value="&lt;div style=&quot;font-size: 10px;&quot;&gt;&lt;font style=&quot;font-size: 10px;&quot;&gt;parent.register(BaseConfig.class);&lt;/font&gt;&lt;/div&gt;&lt;div style=&quot;font-size: 10px;&quot;&gt;&lt;font style=&quot;font-size: 10px;&quot;&gt;parent.refresh();&lt;/font&gt;&lt;/div&gt;" style="rounded=1;whiteSpace=wrap;html=1;fontSize=10;" parent="1" vertex="1">
          <mxGeometry x="280" y="240" width="200" height="60" as="geometry" />
        </mxCell>
        <mxCell id="RcNMq9Ko6mRkyaurOMC_-11" value="" style="edgeStyle=orthogonalEdgeStyle;rounded=0;orthogonalLoop=1;jettySize=auto;html=1;fontSize=10;" parent="1" source="RcNMq9Ko6mRkyaurOMC_-7" target="RcNMq9Ko6mRkyaurOMC_-10" edge="1">
          <mxGeometry relative="1" as="geometry" />
        </mxCell>
        <mxCell id="RcNMq9Ko6mRkyaurOMC_-7" value="&lt;font style=&quot;font-size: 10px;&quot;&gt;testChildContexts(parent);&lt;/font&gt;" style="rounded=1;whiteSpace=wrap;html=1;fontSize=10;" parent="1" vertex="1">
          <mxGeometry x="280" y="320" width="200" height="60" as="geometry" />
        </mxCell>
        <mxCell id="RcNMq9Ko6mRkyaurOMC_-9" value="&lt;font style=&quot;font-size: 10px;&quot;&gt;&lt;font color=&quot;#007fff&quot; style=&quot;font-size: 10px;&quot;&gt;前两步创建一个名为parent的应用上下文（Bean容器），注册一个BaseConfig 配置类，然后执行 refresh() 会扫描BaseConfig 中的BeanDefinition, 然后创建并初始化 Bean, 忘记处理流程的话，去看下&lt;br style=&quot;font-size: 10px;&quot;&gt;spring AnnotationConfigApplicationContext 源码分析流程图&lt;/font&gt;&lt;br style=&quot;font-size: 10px;&quot;&gt;&lt;/font&gt;" style="text;html=1;strokeColor=none;fillColor=none;align=left;verticalAlign=middle;whiteSpace=wrap;rounded=0;fontSize=10;" parent="1" vertex="1">
          <mxGeometry x="490" y="240" width="310" height="60" as="geometry" />
        </mxCell>
        <mxCell id="RcNMq9Ko6mRkyaurOMC_-13" value="" style="edgeStyle=orthogonalEdgeStyle;rounded=0;orthogonalLoop=1;jettySize=auto;html=1;" parent="1" source="RcNMq9Ko6mRkyaurOMC_-10" target="RcNMq9Ko6mRkyaurOMC_-12" edge="1">
          <mxGeometry relative="1" as="geometry" />
        </mxCell>
        <mxCell id="RcNMq9Ko6mRkyaurOMC_-17" value="" style="edgeStyle=orthogonalEdgeStyle;rounded=0;orthogonalLoop=1;jettySize=auto;html=1;" parent="1" source="RcNMq9Ko6mRkyaurOMC_-10" target="RcNMq9Ko6mRkyaurOMC_-16" edge="1">
          <mxGeometry relative="1" as="geometry" />
        </mxCell>
        <mxCell id="RcNMq9Ko6mRkyaurOMC_-10" value="&lt;font style=&quot;font-size: 10px;&quot;&gt;TestClientFactory &lt;b&gt;factory&lt;/b&gt; = new TestClientFactory();&lt;br style=&quot;font-size: 10px;&quot;&gt;&lt;font color=&quot;#007fff&quot;&gt;此类继承 NamedContextFactory&amp;lt;TestSpec&amp;gt;&lt;/font&gt;&lt;br style=&quot;font-size: 10px;&quot;&gt;&lt;/font&gt;" style="rounded=1;whiteSpace=wrap;html=1;fontSize=10;fillColor=#dae8fc;strokeColor=#6c8ebf;" parent="1" vertex="1">
          <mxGeometry x="520" y="320" width="200" height="60" as="geometry" />
        </mxCell>
        <mxCell id="RcNMq9Ko6mRkyaurOMC_-12" value="&lt;font style=&quot;&quot;&gt;super(TestSpec.class, &quot;testfactory&quot;, &quot;test.client.name&quot;);&lt;br style=&quot;font-size: 10px;&quot;&gt;&lt;/font&gt;" style="rounded=1;whiteSpace=wrap;html=1;fontSize=10;" parent="1" vertex="1">
          <mxGeometry x="760" y="320" width="200" height="60" as="geometry" />
        </mxCell>
        <mxCell id="lvGO4TqXhQ6l0tlfrCK3-3" style="rounded=0;orthogonalLoop=1;jettySize=auto;html=1;exitX=1;exitY=1;exitDx=0;exitDy=0;entryX=0;entryY=0;entryDx=0;entryDy=0;" parent="1" source="RcNMq9Ko6mRkyaurOMC_-14" target="lvGO4TqXhQ6l0tlfrCK3-2" edge="1">
          <mxGeometry relative="1" as="geometry" />
        </mxCell>
        <mxCell id="RcNMq9Ko6mRkyaurOMC_-14" value="&lt;div style=&quot;text-align: center; font-size: 10px;&quot;&gt;&lt;font style=&quot;font-size: 10px;&quot;&gt;&lt;font style=&quot;font-size: 10px;&quot; color=&quot;#000000&quot;&gt;&lt;b&gt;NamedContextFactory&lt;/b&gt;&amp;lt;C extends NamedContextFactory.Specification&amp;gt;&lt;/font&gt;&lt;br&gt;&lt;/font&gt;&lt;/div&gt;&lt;div style=&quot;text-align: center; font-size: 10px;&quot;&gt;&lt;font style=&quot;font-size: 10px;&quot;&gt;&lt;font style=&quot;font-size: 10px;&quot; color=&quot;#000000&quot;&gt;implements DisposableBean, ApplicationContextAware&lt;br&gt;&lt;/font&gt;&lt;/font&gt;&lt;/div&gt;&lt;hr style=&quot;font-size: 10px;&quot; size=&quot;1&quot;&gt;&lt;font style=&quot;font-size: 10px;&quot;&gt;&lt;span style=&quot;background-color: initial;&quot;&gt;&lt;div style=&quot;font-size: 10px;&quot;&gt;&lt;br&gt;&lt;/div&gt;&lt;div style=&quot;font-size: 10px;&quot;&gt;//属性源的名称，用于创建 MapPropertySources 并添加到新的应用上下文（Bean容器）&lt;/div&gt;&lt;div style=&quot;font-size: 10px;&quot;&gt;&lt;font color=&quot;#000000&quot;&gt;private final String propertySourceName;&lt;/font&gt;&lt;/div&gt;&lt;div style=&quot;font-size: 10px;&quot;&gt;//属性名&lt;/div&gt;&lt;div style=&quot;font-size: 10px;&quot;&gt;&lt;font color=&quot;#000000&quot;&gt;private final String propertyName;&lt;/font&gt;&lt;/div&gt;&lt;div style=&quot;font-size: 10px;&quot;&gt;// 配置组名 -&amp;gt; 加载配置类的子应用上下文 Map&lt;br&gt;&lt;/div&gt;&lt;div style=&quot;font-size: 10px;&quot;&gt;&lt;font color=&quot;#000000&quot;&gt;private Map&amp;lt;String, AnnotationConfigApplicationContext&amp;gt; &lt;b&gt;contexts&lt;/b&gt; = new &lt;b&gt;ConcurrentHashMap&lt;/b&gt;&amp;lt;&amp;gt;();&lt;/font&gt;&lt;/div&gt;&lt;div style=&quot;font-size: 10px;&quot;&gt;// 配置组名 -&amp;gt; 配置类数组 的 Map, 即&lt;b&gt;多组配置类的容器&lt;/b&gt;&lt;/div&gt;&lt;div style=&quot;font-size: 10px;&quot;&gt;&lt;font color=&quot;#000000&quot;&gt;private Map&amp;lt;String, C&amp;gt; &lt;b&gt;configurations&lt;/b&gt; = new ConcurrentHashMap&amp;lt;&amp;gt;();&lt;/font&gt;&lt;/div&gt;&lt;div style=&quot;font-size: 10px;&quot;&gt;// 父应用上下文&lt;/div&gt;&lt;div style=&quot;font-size: 10px;&quot;&gt;&lt;font color=&quot;#000000&quot;&gt;private ApplicationContext &lt;b&gt;parent&lt;/b&gt;;&lt;/font&gt;&lt;/div&gt;&lt;span style=&quot;&quot;&gt;// 默认的配置类型，创建子应用上下文后会注册此配置类，可以理解为所有子应用上下文共有的配置类&lt;br&gt;// 而 Specification 中的配置类则是各子应用上下文特有的配置类&lt;br&gt;&lt;/span&gt;&lt;div style=&quot;font-size: 10px;&quot;&gt;&lt;font color=&quot;#000000&quot;&gt;private Class&amp;lt;?&amp;gt; defaultConfigType;&lt;/font&gt;&lt;/div&gt;&lt;/span&gt;&lt;/font&gt;" style="verticalAlign=top;align=left;overflow=fill;fontSize=12;fontFamily=Helvetica;html=1;fontColor=#007FFF;" parent="1" vertex="1">
          <mxGeometry x="-520" y="160" width="480" height="220" as="geometry" />
        </mxCell>
        <mxCell id="RcNMq9Ko6mRkyaurOMC_-15" value="&lt;div style=&quot;text-align: center;&quot;&gt;&lt;font style=&quot;font-size: 10px;&quot; color=&quot;#000000&quot;&gt;TestSpec&lt;/font&gt;&lt;br&gt;&lt;/div&gt;&lt;hr style=&quot;font-size: 10px;&quot; size=&quot;1&quot;&gt;&lt;font style=&quot;font-size: 10px;&quot;&gt;&lt;span style=&quot;background-color: initial;&quot;&gt;&lt;div style=&quot;font-size: 10px;&quot;&gt;单元测试中定义的一个简单规范，确实是带有名称(配置名)和配置(一组配置类)的规范&lt;/div&gt;&lt;div style=&quot;font-size: 10px;&quot;&gt;&lt;br&gt;&lt;/div&gt;&lt;div style=&quot;font-size: 10px;&quot;&gt;//从代码中可以看出name其实是下面一组配置类的名字&lt;/div&gt;&lt;div style=&quot;font-size: 10px;&quot;&gt;&lt;div&gt;&lt;font color=&quot;#000000&quot;&gt;private String name;&lt;/font&gt;&lt;/div&gt;&lt;div&gt;//一组配置类&lt;/div&gt;&lt;div&gt;&lt;font color=&quot;#000000&quot;&gt;private Class&amp;lt;?&amp;gt;[] configuration;&lt;/font&gt;&lt;/div&gt;&lt;/div&gt;&lt;/span&gt;&lt;/font&gt;" style="verticalAlign=top;align=left;overflow=fill;fontSize=12;fontFamily=Helvetica;html=1;fontColor=#007FFF;" parent="1" vertex="1">
          <mxGeometry x="-520" y="420" width="480" height="100" as="geometry" />
        </mxCell>
        <mxCell id="RcNMq9Ko6mRkyaurOMC_-19" value="" style="edgeStyle=orthogonalEdgeStyle;rounded=0;orthogonalLoop=1;jettySize=auto;html=1;" parent="1" source="RcNMq9Ko6mRkyaurOMC_-16" target="RcNMq9Ko6mRkyaurOMC_-18" edge="1">
          <mxGeometry relative="1" as="geometry" />
        </mxCell>
        <mxCell id="RcNMq9Ko6mRkyaurOMC_-16" value="&lt;font style=&quot;&quot;&gt;factory.setApplicationContext(parent);&lt;br style=&quot;font-size: 10px;&quot;&gt;&lt;/font&gt;" style="rounded=1;whiteSpace=wrap;html=1;fontSize=10;" parent="1" vertex="1">
          <mxGeometry x="520" y="400" width="200" height="60" as="geometry" />
        </mxCell>
        <mxCell id="RcNMq9Ko6mRkyaurOMC_-21" value="" style="edgeStyle=orthogonalEdgeStyle;rounded=0;orthogonalLoop=1;jettySize=auto;html=1;" parent="1" source="RcNMq9Ko6mRkyaurOMC_-18" target="RcNMq9Ko6mRkyaurOMC_-20" edge="1">
          <mxGeometry relative="1" as="geometry" />
        </mxCell>
        <mxCell id="RcNMq9Ko6mRkyaurOMC_-18" value="&lt;font style=&quot;&quot;&gt;factory.&lt;b&gt;setConfigurations&lt;/b&gt;(Arrays.asList(&lt;br&gt;getSpec(&quot;foo&quot;, FooConfig.class), getSpec(&quot;bar&quot;, BarConfig.class)));&lt;br&gt;&lt;font color=&quot;#007fff&quot;&gt;定义了两组规范，或者说是两组配置类，并赋值到 NamedContextFactory&lt;/font&gt;&lt;br style=&quot;font-size: 10px;&quot;&gt;&lt;/font&gt;" style="rounded=1;whiteSpace=wrap;html=1;fontSize=10;fillColor=#dae8fc;strokeColor=#6c8ebf;" parent="1" vertex="1">
          <mxGeometry x="520" y="480" width="200" height="60" as="geometry" />
        </mxCell>
        <mxCell id="RcNMq9Ko6mRkyaurOMC_-23" value="" style="edgeStyle=orthogonalEdgeStyle;rounded=0;orthogonalLoop=1;jettySize=auto;html=1;" parent="1" source="RcNMq9Ko6mRkyaurOMC_-20" target="RcNMq9Ko6mRkyaurOMC_-22" edge="1">
          <mxGeometry relative="1" as="geometry" />
        </mxCell>
        <mxCell id="RcNMq9Ko6mRkyaurOMC_-41" value="" style="edgeStyle=orthogonalEdgeStyle;rounded=0;orthogonalLoop=1;jettySize=auto;html=1;" parent="1" source="RcNMq9Ko6mRkyaurOMC_-20" target="RcNMq9Ko6mRkyaurOMC_-40" edge="1">
          <mxGeometry relative="1" as="geometry" />
        </mxCell>
        <mxCell id="RcNMq9Ko6mRkyaurOMC_-20" value="&lt;font style=&quot;&quot;&gt;Foo foo = factory.&lt;b&gt;getInstance&lt;/b&gt;(&quot;foo&quot;, Foo.class);&lt;br&gt;&lt;font color=&quot;#007fff&quot;&gt;就是从以foo为key的子应用上下文中获取Foo类型的Bean&lt;/font&gt;&lt;br style=&quot;font-size: 10px;&quot;&gt;&lt;/font&gt;" style="rounded=1;whiteSpace=wrap;html=1;fontSize=10;fillColor=#dae8fc;strokeColor=#6c8ebf;" parent="1" vertex="1">
          <mxGeometry x="520" y="560" width="200" height="60" as="geometry" />
        </mxCell>
        <mxCell id="RcNMq9Ko6mRkyaurOMC_-27" value="" style="edgeStyle=orthogonalEdgeStyle;rounded=0;orthogonalLoop=1;jettySize=auto;html=1;" parent="1" source="RcNMq9Ko6mRkyaurOMC_-22" target="RcNMq9Ko6mRkyaurOMC_-26" edge="1">
          <mxGeometry relative="1" as="geometry" />
        </mxCell>
        <mxCell id="RcNMq9Ko6mRkyaurOMC_-39" value="" style="edgeStyle=orthogonalEdgeStyle;rounded=0;orthogonalLoop=1;jettySize=auto;html=1;" parent="1" source="RcNMq9Ko6mRkyaurOMC_-22" target="RcNMq9Ko6mRkyaurOMC_-38" edge="1">
          <mxGeometry relative="1" as="geometry" />
        </mxCell>
        <mxCell id="RcNMq9Ko6mRkyaurOMC_-22" value="&lt;font style=&quot;&quot;&gt;AnnotationConfigApplicationContext context = getContext(name);&lt;br&gt;&lt;font style=&quot;font-size: 9px;&quot; color=&quot;#007fff&quot;&gt;DCL同步下，判断contexts中是否存在此name的应用上下文，不存在则创建存在则返回&lt;/font&gt;&lt;br style=&quot;font-size: 10px;&quot;&gt;&lt;/font&gt;" style="rounded=1;whiteSpace=wrap;html=1;fontSize=10;fillColor=#dae8fc;strokeColor=#6c8ebf;" parent="1" vertex="1">
          <mxGeometry x="760" y="560" width="200" height="60" as="geometry" />
        </mxCell>
        <mxCell id="RcNMq9Ko6mRkyaurOMC_-29" value="" style="edgeStyle=orthogonalEdgeStyle;rounded=0;orthogonalLoop=1;jettySize=auto;html=1;" parent="1" source="RcNMq9Ko6mRkyaurOMC_-26" target="RcNMq9Ko6mRkyaurOMC_-28" edge="1">
          <mxGeometry relative="1" as="geometry" />
        </mxCell>
        <mxCell id="RcNMq9Ko6mRkyaurOMC_-26" value="&lt;font style=&quot;&quot;&gt;this.contexts.put(name, &lt;b&gt;createContext&lt;/b&gt;(name));&lt;br&gt;&lt;font size=&quot;1&quot; color=&quot;#007fff&quot;&gt;不存在的情况下创建应用上下文并注册name对应配置组所有配置到新建的应用上下文&lt;/font&gt;&lt;br style=&quot;font-size: 10px;&quot;&gt;&lt;/font&gt;" style="rounded=1;whiteSpace=wrap;html=1;fontSize=10;" parent="1" vertex="1">
          <mxGeometry x="1000" y="560" width="200" height="60" as="geometry" />
        </mxCell>
        <mxCell id="RcNMq9Ko6mRkyaurOMC_-31" value="" style="edgeStyle=orthogonalEdgeStyle;rounded=0;orthogonalLoop=1;jettySize=auto;html=1;" parent="1" source="RcNMq9Ko6mRkyaurOMC_-28" target="RcNMq9Ko6mRkyaurOMC_-30" edge="1">
          <mxGeometry relative="1" as="geometry" />
        </mxCell>
        <mxCell id="RcNMq9Ko6mRkyaurOMC_-28" value="&lt;font style=&quot;&quot;&gt;context = new AnnotationConfigApplicationContext(...);&lt;br style=&quot;font-size: 10px;&quot;&gt;&lt;/font&gt;" style="rounded=1;whiteSpace=wrap;html=1;fontSize=10;fillColor=#dae8fc;strokeColor=#6c8ebf;" parent="1" vertex="1">
          <mxGeometry x="1240.5" y="560" width="200" height="60" as="geometry" />
        </mxCell>
        <mxCell id="RcNMq9Ko6mRkyaurOMC_-33" value="" style="edgeStyle=orthogonalEdgeStyle;rounded=0;orthogonalLoop=1;jettySize=auto;html=1;" parent="1" source="RcNMq9Ko6mRkyaurOMC_-30" target="RcNMq9Ko6mRkyaurOMC_-32" edge="1">
          <mxGeometry relative="1" as="geometry" />
        </mxCell>
        <mxCell id="RcNMq9Ko6mRkyaurOMC_-30" value="&lt;font style=&quot;&quot;&gt;context.&lt;b&gt;register&lt;/b&gt;(configuration);&lt;br&gt;&lt;font color=&quot;#007fff&quot;&gt;注册name对应配置组所有配置以及&lt;br&gt;命名以&quot;default.&quot;开头的配置组的所有配置&lt;/font&gt;&lt;br style=&quot;font-size: 10px;&quot;&gt;&lt;/font&gt;" style="rounded=1;whiteSpace=wrap;html=1;fontSize=10;fillColor=#dae8fc;strokeColor=#6c8ebf;" parent="1" vertex="1">
          <mxGeometry x="1241" y="640" width="200" height="60" as="geometry" />
        </mxCell>
        <mxCell id="RcNMq9Ko6mRkyaurOMC_-35" value="" style="edgeStyle=orthogonalEdgeStyle;rounded=0;orthogonalLoop=1;jettySize=auto;html=1;" parent="1" source="RcNMq9Ko6mRkyaurOMC_-32" target="RcNMq9Ko6mRkyaurOMC_-34" edge="1">
          <mxGeometry relative="1" as="geometry" />
        </mxCell>
        <mxCell id="RcNMq9Ko6mRkyaurOMC_-32" value="&lt;font style=&quot;&quot;&gt;context.&lt;b&gt;register&lt;/b&gt;(&lt;br&gt;PropertyPlaceholderAutoConfiguration.class, this.&lt;b&gt;defaultConfigType&lt;/b&gt;);&lt;br style=&quot;font-size: 10px;&quot;&gt;&lt;/font&gt;" style="rounded=1;whiteSpace=wrap;html=1;fontSize=10;fillColor=#dae8fc;strokeColor=#6c8ebf;" parent="1" vertex="1">
          <mxGeometry x="1241" y="720" width="200" height="60" as="geometry" />
        </mxCell>
        <mxCell id="RcNMq9Ko6mRkyaurOMC_-37" value="" style="edgeStyle=orthogonalEdgeStyle;rounded=0;orthogonalLoop=1;jettySize=auto;html=1;" parent="1" source="RcNMq9Ko6mRkyaurOMC_-34" target="RcNMq9Ko6mRkyaurOMC_-36" edge="1">
          <mxGeometry relative="1" as="geometry" />
        </mxCell>
        <mxCell id="RcNMq9Ko6mRkyaurOMC_-34" value="&lt;font style=&quot;&quot;&gt;&lt;div&gt;context.getEnvironment()&lt;span style=&quot;background-color: initial;&quot;&gt;.&lt;b&gt;getPropertySources&lt;/b&gt;()&lt;/span&gt;&lt;/div&gt;&lt;div&gt;&lt;span style=&quot;background-color: initial;&quot;&gt;.addFirst(new MapPropertySource(&lt;/span&gt;&lt;/div&gt;&lt;div&gt;&lt;span style=&quot;background-color: initial;&quot;&gt;this.propertySourceName,&amp;nbsp;&lt;/span&gt;&lt;/div&gt;&lt;div&gt;&lt;span style=&quot;background-color: initial;&quot;&gt;Collections&amp;lt;String,Object&amp;gt;singletonMap(&lt;/span&gt;&lt;/div&gt;&lt;div&gt;&lt;span style=&quot;background-color: initial;&quot;&gt;this.propertyName, name)));&lt;/span&gt;&lt;/div&gt;&lt;/font&gt;" style="rounded=1;whiteSpace=wrap;html=1;fontSize=10;fillColor=#dae8fc;strokeColor=#6c8ebf;align=left;" parent="1" vertex="1">
          <mxGeometry x="1220.5" y="800" width="240" height="60" as="geometry" />
        </mxCell>
        <mxCell id="RcNMq9Ko6mRkyaurOMC_-36" value="&lt;font style=&quot;&quot;&gt;&lt;div&gt;context.setParent(this.parent);&lt;/div&gt;&lt;div&gt;&lt;div&gt;context.&lt;b&gt;setDisplayName&lt;/b&gt;(&lt;/div&gt;&lt;div&gt;generateDisplayName(name));&lt;/div&gt;&lt;div&gt;context.&lt;b&gt;refresh&lt;/b&gt;();&lt;/div&gt;&lt;/div&gt;&lt;div&gt;return context;&lt;br&gt;&lt;/div&gt;&lt;/font&gt;" style="rounded=1;whiteSpace=wrap;html=1;fontSize=10;fillColor=#dae8fc;strokeColor=#6c8ebf;" parent="1" vertex="1">
          <mxGeometry x="1241" y="880" width="200" height="60" as="geometry" />
        </mxCell>
        <mxCell id="RcNMq9Ko6mRkyaurOMC_-38" value="&lt;font style=&quot;&quot;&gt;return context.getBean(type);&lt;br style=&quot;font-size: 10px;&quot;&gt;&lt;/font&gt;" style="rounded=1;whiteSpace=wrap;html=1;fontSize=10;" parent="1" vertex="1">
          <mxGeometry x="760" y="640" width="200" height="60" as="geometry" />
        </mxCell>
        <mxCell id="RcNMq9Ko6mRkyaurOMC_-43" value="" style="edgeStyle=orthogonalEdgeStyle;rounded=0;orthogonalLoop=1;jettySize=auto;html=1;" parent="1" source="RcNMq9Ko6mRkyaurOMC_-40" target="RcNMq9Ko6mRkyaurOMC_-42" edge="1">
          <mxGeometry relative="1" as="geometry" />
        </mxCell>
        <mxCell id="RcNMq9Ko6mRkyaurOMC_-40" value="&lt;font style=&quot;&quot;&gt;Object fooContainerFoo = factory.&lt;b&gt;getInstance&lt;/b&gt;(&quot;foo&quot;, Container.class, Foo.class);&lt;br&gt;&lt;font color=&quot;#007fff&quot;&gt;从以foo为key的子应用上下文中获取泛型类为Foo Container类型的Bean&lt;/font&gt;&lt;br style=&quot;font-size: 10px;&quot;&gt;&lt;/font&gt;" style="rounded=1;whiteSpace=wrap;html=1;fontSize=10;fillColor=#dae8fc;strokeColor=#6c8ebf;" parent="1" vertex="1">
          <mxGeometry x="520" y="720" width="200" height="60" as="geometry" />
        </mxCell>
        <mxCell id="RcNMq9Ko6mRkyaurOMC_-42" value="&lt;font style=&quot;&quot;&gt;AnnotationConfigApplicationContext fooContext = factory.getContext(&quot;foo&quot;);&lt;br style=&quot;font-size: 10px;&quot;&gt;&lt;/font&gt;" style="rounded=1;whiteSpace=wrap;html=1;fontSize=10;fillColor=#dae8fc;strokeColor=#6c8ebf;" parent="1" vertex="1">
          <mxGeometry x="520" y="800" width="200" height="60" as="geometry" />
        </mxCell>
        <mxCell id="RcNMq9Ko6mRkyaurOMC_-45" value="&lt;font style=&quot;font-size: 10px;&quot; color=&quot;#007fff&quot;&gt;创建并初始化Bean&lt;/font&gt;" style="text;html=1;align=center;verticalAlign=middle;resizable=0;points=[];autosize=1;strokeColor=none;fillColor=none;" parent="1" vertex="1">
          <mxGeometry x="1125" y="895" width="110" height="30" as="geometry" />
        </mxCell>
        <mxCell id="lvGO4TqXhQ6l0tlfrCK3-1" value="&lt;font style=&quot;font-size: 10px;&quot; color=&quot;#007fff&quot;&gt;这里则是为子应用上下文&lt;br&gt;新增了 MapPropertySource&lt;br&gt;&lt;/font&gt;" style="text;html=1;align=center;verticalAlign=middle;resizable=0;points=[];autosize=1;strokeColor=none;fillColor=none;" parent="1" vertex="1">
          <mxGeometry x="1065.5" y="810" width="150" height="40" as="geometry" />
        </mxCell>
        <mxCell id="lvGO4TqXhQ6l0tlfrCK3-2" value="&lt;div style=&quot;font-size: 10px;&quot;&gt;这个factory最终的效果：&lt;/div&gt;&lt;div style=&quot;font-size: 10px;&quot;&gt;&lt;br&gt;&lt;/div&gt;&lt;div style=&quot;font-size: 10px;&quot;&gt;&lt;font style=&quot;font-size: 10px;&quot;&gt;&lt;b&gt;factory&lt;/b&gt; = {NamedContextFactoryTests$TestClientFactory@3141}&amp;nbsp;&lt;/font&gt;&lt;/div&gt;&lt;div style=&quot;font-size: 10px;&quot;&gt;&lt;font style=&quot;font-size: 10px;&quot;&gt;&amp;nbsp; &amp;nbsp; &lt;b&gt;propertySourceName&lt;/b&gt; = &quot;testfactory&quot;&lt;/font&gt;&lt;/div&gt;&lt;div style=&quot;font-size: 10px;&quot;&gt;&lt;font style=&quot;font-size: 10px;&quot;&gt;&amp;nbsp; &amp;nbsp; &lt;b&gt;propertyName&lt;/b&gt; = &quot;test.client.name&quot;&lt;/font&gt;&lt;/div&gt;&lt;div style=&quot;font-size: 10px;&quot;&gt;&lt;font style=&quot;font-size: 10px;&quot;&gt;&amp;nbsp; &amp;nbsp; &lt;b&gt;contexts&lt;/b&gt; = {ConcurrentHashMap@3148}&amp;nbsp; size = 2&lt;/font&gt;&lt;/div&gt;&lt;div style=&quot;font-size: 10px;&quot;&gt;&lt;font style=&quot;font-size: 10px;&quot;&gt;&lt;span style=&quot;white-space: pre;&quot;&gt;&#x9;&lt;/span&gt;//两个子应用上下文&lt;br&gt;&lt;/font&gt;&lt;/div&gt;&lt;div style=&quot;font-size: 10px;&quot;&gt;&lt;font style=&quot;font-size: 10px;&quot;&gt;&amp;nbsp; &amp;nbsp; &amp;nbsp; &amp;nbsp; &quot;&lt;b&gt;bar&lt;/b&gt;&quot; -&amp;gt; {AnnotationConfigApplicationContext@3532}&lt;/font&gt;&lt;/div&gt;&lt;div style=&quot;font-size: 10px;&quot;&gt;&lt;font style=&quot;font-size: 10px;&quot;&gt;&amp;nbsp; &amp;nbsp; &amp;nbsp; &amp;nbsp; &amp;nbsp; &amp;nbsp; ...&lt;/font&gt;&lt;/div&gt;&lt;div style=&quot;font-size: 10px;&quot;&gt;&lt;font style=&quot;font-size: 10px;&quot;&gt;&amp;nbsp; &amp;nbsp; &amp;nbsp; &amp;nbsp; &amp;nbsp; &amp;nbsp; environment = {StandardEnvironment@3620}&amp;nbsp;&lt;/font&gt;&lt;/div&gt;&lt;div style=&quot;font-size: 10px;&quot;&gt;&lt;font style=&quot;font-size: 10px;&quot;&gt;&amp;nbsp; &amp;nbsp; &amp;nbsp; &amp;nbsp; &amp;nbsp; &amp;nbsp; &amp;nbsp; &amp;nbsp; ...&lt;/font&gt;&lt;/div&gt;&lt;div style=&quot;font-size: 10px;&quot;&gt;&lt;font style=&quot;font-size: 10px;&quot;&gt;&amp;nbsp; &amp;nbsp; &amp;nbsp; &amp;nbsp; &amp;nbsp; &amp;nbsp; &amp;nbsp; &amp;nbsp; propertySources = {MutablePropertySources@3639}&lt;/font&gt;&lt;/div&gt;&lt;div style=&quot;font-size: 10px;&quot;&gt;&lt;font style=&quot;font-size: 10px;&quot;&gt;&amp;nbsp; &amp;nbsp; &amp;nbsp; &amp;nbsp; &amp;nbsp; &amp;nbsp; &amp;nbsp; &amp;nbsp; &amp;nbsp; &amp;nbsp; propertySourceList = {CopyOnWriteArrayList@3644}&amp;nbsp; size = 3&lt;/font&gt;&lt;/div&gt;&lt;div style=&quot;font-size: 10px;&quot;&gt;&lt;font style=&quot;font-size: 10px;&quot;&gt;&amp;nbsp; &amp;nbsp; &amp;nbsp; &amp;nbsp; &amp;nbsp; &amp;nbsp; &amp;nbsp; &amp;nbsp; &amp;nbsp; &amp;nbsp; &amp;nbsp; &amp;nbsp; 0 = {&lt;b&gt;MapPropertySource&lt;/b&gt;@3646}&lt;/font&gt;&lt;/div&gt;&lt;div style=&quot;font-size: 10px;&quot;&gt;&lt;font style=&quot;font-size: 10px;&quot;&gt;&amp;nbsp; &amp;nbsp; &amp;nbsp; &amp;nbsp; &amp;nbsp; &amp;nbsp; &amp;nbsp; &amp;nbsp; &amp;nbsp; &amp;nbsp; &amp;nbsp; &amp;nbsp; &amp;nbsp; &amp;nbsp; logger = {LogAdapter$Slf4jLocationAwareLog@3665}&amp;nbsp;&lt;/font&gt;&lt;/div&gt;&lt;div style=&quot;font-size: 10px;&quot;&gt;&lt;font style=&quot;font-size: 10px;&quot;&gt;&amp;nbsp; &amp;nbsp; &amp;nbsp; &amp;nbsp; &amp;nbsp; &amp;nbsp; &amp;nbsp; &amp;nbsp; &amp;nbsp; &amp;nbsp; &amp;nbsp; &amp;nbsp; &amp;nbsp; &amp;nbsp; name = &quot;testfactory&quot;&lt;/font&gt;&lt;/div&gt;&lt;div style=&quot;font-size: 10px;&quot;&gt;&lt;font style=&quot;font-size: 10px;&quot;&gt;&amp;nbsp; &amp;nbsp; &amp;nbsp; &amp;nbsp; &amp;nbsp; &amp;nbsp; &amp;nbsp; &amp;nbsp; &amp;nbsp; &amp;nbsp; &amp;nbsp; &amp;nbsp; &amp;nbsp; &amp;nbsp; source = {Collections$SingletonMap@3666}&amp;nbsp; size = 1&lt;/font&gt;&lt;/div&gt;&lt;div style=&quot;font-size: 10px;&quot;&gt;&lt;font style=&quot;font-size: 10px;&quot;&gt;&amp;nbsp; &amp;nbsp; &amp;nbsp; &amp;nbsp; &amp;nbsp; &amp;nbsp; &amp;nbsp; &amp;nbsp; &amp;nbsp; &amp;nbsp; &amp;nbsp; &amp;nbsp; &amp;nbsp; &amp;nbsp; &quot;test.client.name&quot; -&amp;gt; &quot;foo&quot;&lt;/font&gt;&lt;/div&gt;&lt;div style=&quot;font-size: 10px;&quot;&gt;&lt;font style=&quot;font-size: 10px;&quot;&gt;&amp;nbsp; &amp;nbsp; &amp;nbsp; &amp;nbsp; &amp;nbsp; &amp;nbsp; &amp;nbsp; &amp;nbsp; &amp;nbsp; &amp;nbsp; &amp;nbsp; &amp;nbsp; 1 = {PropertiesPropertySource@3647}&amp;nbsp;&lt;/font&gt;&lt;/div&gt;&lt;div style=&quot;font-size: 10px;&quot;&gt;&lt;font style=&quot;font-size: 10px;&quot;&gt;&amp;nbsp; &amp;nbsp; &amp;nbsp; &amp;nbsp; &amp;nbsp; &amp;nbsp; &amp;nbsp; &amp;nbsp; &amp;nbsp; &amp;nbsp; &amp;nbsp; &amp;nbsp; 2 = {SystemEnvironmentPropertySource@3648}&amp;nbsp;&lt;/font&gt;&lt;/div&gt;&lt;div style=&quot;font-size: 10px;&quot;&gt;&lt;font style=&quot;font-size: 10px;&quot;&gt;&amp;nbsp; &amp;nbsp; &amp;nbsp; &amp;nbsp; &quot;foo&quot; -&amp;gt; {AnnotationConfigApplicationContext@3296}&lt;/font&gt;&lt;/div&gt;&lt;div style=&quot;font-size: 10px;&quot;&gt;&lt;font style=&quot;font-size: 10px;&quot;&gt;&amp;nbsp; &amp;nbsp; &lt;b&gt;configurations&lt;/b&gt; = {ConcurrentHashMap@3150}&amp;nbsp; size = 2&lt;/font&gt;&lt;/div&gt;&lt;div style=&quot;font-size: 10px;&quot;&gt;&lt;font style=&quot;font-size: 10px;&quot;&gt;&amp;nbsp; &amp;nbsp; &amp;nbsp; &amp;nbsp; &quot;bar&quot; -&amp;gt; {NamedContextFactoryTests$TestSpec@3308}&amp;nbsp;&lt;/font&gt;&lt;/div&gt;&lt;div style=&quot;font-size: 10px;&quot;&gt;&lt;font style=&quot;font-size: 10px;&quot;&gt;&amp;nbsp; &amp;nbsp; &amp;nbsp; &amp;nbsp; &quot;foo&quot; -&amp;gt; {NamedContextFactoryTests$TestSpec@3309}&amp;nbsp;&lt;/font&gt;&lt;/div&gt;&lt;div style=&quot;font-size: 10px;&quot;&gt;&lt;font style=&quot;font-size: 10px;&quot;&gt;&amp;nbsp; &amp;nbsp; &lt;b&gt;parent&lt;/b&gt; = {AnnotationConfigApplicationContext@2245}&amp;nbsp;&lt;/font&gt;&lt;/div&gt;&lt;div style=&quot;font-size: 10px;&quot;&gt;&lt;font style=&quot;font-size: 10px;&quot;&gt;&amp;nbsp; &amp;nbsp; &lt;b style=&quot;&quot;&gt;defaultConfigType&lt;/b&gt; = {Class@2967} &quot;class org.springframework.cloud.context.named.NamedContextFactoryTests$TestSpec&quot;&lt;/font&gt;&lt;/div&gt;" style="text;html=1;strokeColor=none;fillColor=none;align=left;verticalAlign=top;whiteSpace=wrap;rounded=0;fontColor=#007FFF;" parent="1" vertex="1">
          <mxGeometry x="40" y="400" width="440" height="320" as="geometry" />
        </mxCell>
        <mxCell id="rdmgTLdKya5w93jvymPt-1" value="&lt;font style=&quot;font-size: 10px;&quot; color=&quot;#007fff&quot;&gt;注册PropertyPlaceholderAutoConfiguration&lt;br&gt;和 默认配置类型 defaultConfigType&lt;br&gt;&lt;/font&gt;" style="text;html=1;align=center;verticalAlign=middle;resizable=0;points=[];autosize=1;strokeColor=none;fillColor=none;" vertex="1" parent="1">
          <mxGeometry x="1031" y="730" width="210" height="40" as="geometry" />
        </mxCell>
        <mxCell id="rdmgTLdKya5w93jvymPt-2" value="parent" style="rounded=0;whiteSpace=wrap;html=1;" vertex="1" parent="1">
          <mxGeometry x="40" y="880" width="320" height="80" as="geometry" />
        </mxCell>
        <mxCell id="rdmgTLdKya5w93jvymPt-5" style="edgeStyle=orthogonalEdgeStyle;rounded=0;orthogonalLoop=1;jettySize=auto;html=1;exitX=0.5;exitY=0;exitDx=0;exitDy=0;entryX=0.5;entryY=1;entryDx=0;entryDy=0;" edge="1" parent="1" source="rdmgTLdKya5w93jvymPt-3" target="rdmgTLdKya5w93jvymPt-2">
          <mxGeometry relative="1" as="geometry" />
        </mxCell>
        <mxCell id="rdmgTLdKya5w93jvymPt-3" value="foo&lt;br&gt;&lt;br&gt;" style="rounded=0;whiteSpace=wrap;html=1;verticalAlign=top;" vertex="1" parent="1">
          <mxGeometry x="40" y="1000" width="120" height="140" as="geometry" />
        </mxCell>
        <mxCell id="rdmgTLdKya5w93jvymPt-6" style="edgeStyle=orthogonalEdgeStyle;rounded=0;orthogonalLoop=1;jettySize=auto;html=1;exitX=0.5;exitY=0;exitDx=0;exitDy=0;entryX=0.5;entryY=1;entryDx=0;entryDy=0;" edge="1" parent="1" source="rdmgTLdKya5w93jvymPt-4" target="rdmgTLdKya5w93jvymPt-2">
          <mxGeometry relative="1" as="geometry" />
        </mxCell>
        <mxCell id="rdmgTLdKya5w93jvymPt-4" value="bar" style="rounded=0;whiteSpace=wrap;html=1;verticalAlign=top;" vertex="1" parent="1">
          <mxGeometry x="240" y="1000" width="120" height="140" as="geometry" />
        </mxCell>
        <mxCell id="rdmgTLdKya5w93jvymPt-7" value="FooConfig Bean" style="rounded=0;whiteSpace=wrap;html=1;" vertex="1" parent="1">
          <mxGeometry x="50" y="1030" width="100" height="40" as="geometry" />
        </mxCell>
        <mxCell id="rdmgTLdKya5w93jvymPt-8" value="BarConfig&lt;br&gt;Bean" style="rounded=0;whiteSpace=wrap;html=1;" vertex="1" parent="1">
          <mxGeometry x="250" y="1030" width="100" height="40" as="geometry" />
        </mxCell>
        <mxCell id="rdmgTLdKya5w93jvymPt-9" value="defaultConfigType Bean" style="rounded=0;whiteSpace=wrap;html=1;" vertex="1" parent="1">
          <mxGeometry x="50" y="1090" width="100" height="40" as="geometry" />
        </mxCell>
        <mxCell id="rdmgTLdKya5w93jvymPt-10" value="defaultConfigType&lt;br&gt;Bean" style="rounded=0;whiteSpace=wrap;html=1;" vertex="1" parent="1">
          <mxGeometry x="250" y="1090" width="100" height="40" as="geometry" />
        </mxCell>
      </root>
    </mxGraphModel>
  </diagram>
</mxfile>
